# Blender v2.82 (sub 7) OBJ File: 'stamp_set_0.blend'
# www.blender.org
mtllib letter.mtl
o Letter_Cube.008
v -3.952710 -3.500000 -8.464939
v -3.952710 -3.500000 -8.364939
v -3.952710 3.500000 -8.464939
v -3.952710 3.500000 -8.364939
v 8.047290 -3.500000 -8.464939
v 8.047290 -3.500000 -8.364939
v 8.047290 3.500000 -8.464939
v 8.047290 3.500000 -8.364939
v -3.952710 3.217250 -8.364939
v 8.047290 3.129814 -8.364939
v 2.013289 -0.455119 -8.364939
v -3.952710 3.217250 -8.279981
v -3.952710 3.500000 -8.279981
v 8.047290 3.500000 -8.279981
v 8.047290 3.129814 -8.279981
v 2.013289 -0.455119 -8.279981
v 1.243245 0.018881 -8.364939
v 8.047290 -3.500000 -8.383071
v -3.952710 -3.468694 -8.364939
v 2.746624 -0.019428 -8.364939
v 5.466657 -3.500000 -8.364939
v -3.906709 -3.468847 -8.364939
v 1.243245 0.018881 -8.339349
v 2.013289 -0.455119 -8.339349
v 2.746624 -0.019428 -8.339349
v 8.047290 -3.500000 -8.339350
v 5.466657 -3.500000 -8.339350
v -3.906709 -3.468847 -8.339350
v 1.243245 0.018881 -8.313388
v 2.013289 -0.455119 -8.313388
v 2.746624 -0.019428 -8.313388
v 8.047290 -3.500000 -8.313388
v 5.466657 -3.500000 -8.313388
v -3.906709 -3.468847 -8.313388
v -3.952710 3.217250 -8.220905
v -3.952710 3.500000 -8.220905
v 8.047290 3.500000 -8.220905
v 8.047290 3.129814 -8.220905
v 2.013289 -0.455119 -8.220906
v 1.243245 0.018881 -8.289147
v 2.013289 -0.455119 -8.289147
v 2.746624 -0.019428 -8.289147
v 8.047290 -3.500000 -8.289148
v 5.466657 -3.500000 -8.289148
v -3.906709 -3.468847 -8.289148
v 1.243245 0.018881 -8.289147
v 2.013289 -0.455119 -8.289147
v 2.746624 -0.019428 -8.289147
v 8.047290 -3.500000 -8.289148
v 5.466657 -3.500000 -8.289148
v -3.906709 -3.468847 -8.289148
v 1.243245 0.018881 -8.267019
v 2.013289 -0.455119 -8.267019
v 2.746624 -0.019428 -8.267019
v 8.047290 -3.500000 -8.267019
v 5.466657 -3.500000 -8.267019
v -3.906709 -3.468847 -8.267019
vt 0.375000 0.000000
vt 0.625000 0.000000
vt 0.625000 0.001118
vt 0.625000 0.239902
vt 0.625000 0.250000
vt 0.375000 0.250000
vt 0.625000 0.500000
vt 0.375000 0.500000
vt 0.625000 0.513221
vt 0.625000 0.750000
vt 0.579671 0.750000
vt 0.375000 0.750000
vt 0.625000 0.803763
vt 0.625000 1.000000
vt 0.375000 1.000000
vt 0.125000 0.500000
vt 0.125000 0.750000
vt 0.750708 0.641254
vt 0.735430 0.625694
vt 0.625000 0.513221
vt 0.750708 0.641254
vt 0.625000 0.513221
vt 0.750708 0.641254
vt 0.625000 0.239902
vt 0.625000 0.250000
vt 0.625000 0.500000
vt 0.875000 0.510098
vt 0.766751 0.624326
vt 0.875000 0.510098
vt 0.874042 0.748887
vt 0.678763 0.750000
vt 0.678763 0.750000
vt 0.874042 0.748887
vt 0.874042 0.748887
vt 0.678763 0.750000
vt 0.875000 0.750000
vt 0.875000 0.748882
vt 0.766751 0.624326
vt 0.750708 0.641254
vt 0.735430 0.625694
vt 0.625000 0.750000
vt 0.625000 0.803763
vt 0.625000 0.750000
vt 0.735430 0.625694
vt 0.735430 0.625694
vt 0.625000 0.750000
vt 0.766751 0.624326
vt 0.750708 0.641254
vt 0.625000 0.803763
vt 0.625000 0.500000
vt 0.875000 0.500000
vt 0.875000 0.510098
vt 0.625000 0.239902
vt 0.625000 0.250000
vt 0.735430 0.625694
vt 0.625000 0.750000
vt 0.625000 0.803763
vt 0.766751 0.624326
vt 0.750708 0.641254
vt 0.678763 0.750000
vt 0.874042 0.748887
vt 0.874042 0.748887
vt 0.678763 0.750000
vt 0.678763 0.750000
vt 0.874042 0.748887
vt 0.625000 0.803763
vt 0.766751 0.624326
vt 0.750708 0.641254
vt 0.625000 0.750000
vt 0.735430 0.625694
vt 0.750708 0.641254
vt 0.766751 0.624326
vt 0.625000 0.803763
vn -1.0000 0.0000 0.0000
vn 0.0000 1.0000 0.0000
vn 1.0000 0.0000 0.0000
vn 0.0000 -1.0000 0.0000
vn 0.0000 0.0000 -1.0000
vn 0.5108 -0.8597 0.0000
vn 0.0000 0.0000 1.0000
vn -0.5242 -0.8516 0.0000
vn -0.0033 -1.0000 0.0000
vn -0.5607 0.8280 0.0000
vn -0.5108 0.8597 0.0000
vn 0.5242 0.8516 0.0000
vn 0.5489 0.8359 0.0000
vn -0.5608 0.8280 0.0000
usemtl None
s off
f 1/1/1 2/2/1 19/3/1 9/4/1 4/5/1 3/6/1
f 3/6/2 4/5/2 8/7/2 7/8/2
f 7/8/3 8/7/3 10/9/3 6/10/3 18/11/3 5/12/3
f 5/12/4 18/11/4 21/13/4 2/14/4 1/15/4
f 3/16/5 7/8/5 5/12/5 1/17/5
f 11/18/6 20/19/6 10/9/6 15/20/6 16/21/6
f 10/9/7 20/19/7 6/10/7
f 16/21/6 15/20/6 38/22/6 39/23/6
f 4/5/1 9/4/1 12/24/1 13/25/1
f 10/9/3 8/7/3 14/26/3 15/20/3
f 8/7/2 4/5/2 13/25/2 14/26/2
f 9/27/8 17/28/8 11/18/8 16/21/8 12/29/8
f 28/30/9 27/31/9 33/32/9 34/33/9
f 22/34/9 21/35/9 27/31/9 28/30/9
f 21/35/7 22/34/7 2/36/7
f 2/36/7 22/34/7 19/37/7
f 19/37/7 22/34/7 17/28/7 9/27/7
f 21/13/4 18/11/4 6/10/4
f 17/28/10 22/34/10 28/30/10 23/38/10
f 20/19/11 11/18/11 24/39/11 25/40/11
f 11/18/12 17/28/12 23/38/12 24/39/12
f 6/10/13 20/19/13 25/40/13 26/41/13
f 21/13/4 6/10/4 26/41/4 27/42/4
f 32/43/13 31/44/13 42/45/13 43/46/13
f 23/38/10 28/30/10 34/33/10 29/47/10
f 25/40/11 24/39/11 30/48/11 31/44/11
f 26/41/13 25/40/13 31/44/13 32/43/13
f 27/42/4 26/41/4 32/43/4 33/49/4
f 24/39/12 23/38/12 29/47/12 30/48/12
f 37/50/7 36/51/7 35/52/7 39/23/7 38/22/7
f 15/20/3 14/26/3 37/50/3 38/22/3
f 13/25/1 12/24/1 35/53/1 36/54/1
f 12/29/8 16/21/8 39/23/8 35/52/8
f 14/26/2 13/25/2 36/54/2 37/50/2
f 43/46/7 42/45/7 48/55/7 49/56/7
f 33/49/4 32/43/4 43/46/4 44/57/4
f 30/48/12 29/47/12 40/58/12 41/59/12
f 34/33/9 33/32/9 44/60/9 45/61/9
f 29/47/10 34/33/10 45/61/10 40/58/10
f 31/44/11 30/48/11 41/59/11 42/45/11
f 51/62/9 50/63/9 56/64/9 57/65/9
f 44/57/7 43/46/7 49/56/7 50/66/7
f 41/59/7 40/58/7 46/67/7 47/68/7
f 45/61/7 44/60/7 50/63/7 51/62/7
f 40/58/7 45/61/7 51/62/7 46/67/7
f 42/45/7 41/59/7 47/68/7 48/55/7
f 55/69/7 54/70/7 53/71/7 52/72/7 57/65/7 56/64/7
f 46/67/14 51/62/14 57/65/14 52/72/14
f 48/55/11 47/68/11 53/71/11 54/70/11
f 49/56/13 48/55/13 54/70/13 55/69/13
f 50/66/4 49/56/4 55/69/4 56/73/4
f 47/68/12 46/67/12 52/72/12 53/71/12
