# Blender v2.82 (sub 7) OBJ File: 'stamp_set_0.blend'
# www.blender.org
mtllib sample_stamp_3.mtl
o Plane.003
v 1.000000 1.976735 -0.045927
v -1.000000 1.976735 -0.045927
v 1.000000 3.976735 -0.045927
v -0.001203 3.976735 -0.045927
v -1.000000 2.278953 -0.045927
v 0.001884 2.973510 -0.045927
vt 0.000000 0.000000
vt 0.000000 1.000000
vt 0.500602 1.000000
vt 0.499058 0.498387
vt 1.000000 0.151109
vt 1.000000 0.000000
vn 0.0000 -0.0000 1.0000
usemtl None
s off
f 1/1/1 3/2/1 4/3/1 6/4/1 5/5/1 2/6/1
