# Blender v2.82 (sub 7) OBJ File: 'stamp_set_0.blend'
# www.blender.org
mtllib sample_stamp_1.mtl
o Plane.001_Plane.002
v -1.233680 -1.391373 -0.285413
v 0.766320 -1.391373 -0.285413
v -1.233680 0.608627 -0.285413
v 0.766320 -0.782982 -0.285413
v -0.536288 0.608627 -0.285413
v -0.539678 -0.399849 -0.285413
vt 0.000000 0.000000
vt 1.000000 0.000000
vt 1.000000 0.304195
vt 0.347001 0.495762
vt 0.348696 1.000000
vt 0.000000 1.000000
vn 0.0000 -0.0000 1.0000
usemtl None
s off
f 1/1/1 2/2/1 4/3/1 6/4/1 5/5/1 3/6/1
